REM DIRINDEX 1\3,1\2\4,1\2\5,1\2\6
REM DIRNAME folder01,folder02,folder03,folder04,folder05,folder06
TITLE ""
FILE "112.mp3" MP3
  TRACK 01 AUDIO
    TITLE "4:cjc137_4623"
    INDEX 01 00:00:00
  TRACK 02 AUDIO
    TITLE "0:"
    INDEX 01 00:01:03
  TRACK 03 AUDIO
    TITLE "6:cjc137_4624"
    INDEX 01 00:01:19
  TRACK 04 AUDIO
    TITLE "0:"
    INDEX 01 00:02:36
  TRACK 05 AUDIO
    TITLE "5:cjc137_4625"
    INDEX 01 00:02:43
  TRACK 06 AUDIO
    TITLE "0:"
    INDEX 01 00:03:47
  TRACK 07 AUDIO
    TITLE "4:cjc137_4626"
    INDEX 01 00:04:64
  TRACK 08 AUDIO
    TITLE "0:"
    INDEX 01 00:06:14
  TRACK 09 AUDIO
    TITLE "6:cjc137_4627"
    INDEX 01 00:06:20
  TRACK 10 AUDIO
    TITLE "0:"
    INDEX 01 00:07:25
  TRACK 11 AUDIO
    TITLE "5:cjc137_4628"
    INDEX 01 00:07:29
  TRACK 12 AUDIO
    TITLE "0:"
    INDEX 01 00:08:54
  TRACK 13 AUDIO
    TITLE "4:cjc137_4629"
    INDEX 01 00:09:59
  TRACK 14 AUDIO
    TITLE "0:"
    INDEX 01 00:10:72
  TRACK 15 AUDIO
    TITLE "6:cjc137_4630"
    INDEX 01 00:11:03
  TRACK 16 AUDIO
    TITLE "0:"
    INDEX 01 00:12:07
  TRACK 17 AUDIO
    TITLE "5:cjc137_4631"
    INDEX 01 00:12:12
  TRACK 18 AUDIO
    TITLE "0:"
    INDEX 01 00:13:22
  TRACK 19 AUDIO
    TITLE "4:cjc137_4632"
    INDEX 01 00:14:33
  TRACK 20 AUDIO
    TITLE "0:"
    INDEX 01 00:15:54
  TRACK 21 AUDIO
    TITLE "6:cjc137_4633"
    INDEX 01 00:15:62
  TRACK 22 AUDIO
    TITLE "0:"
    INDEX 01 00:16:53
  TRACK 23 AUDIO
    TITLE "5:cjc137_4634"
    INDEX 01 00:16:59
  TRACK 24 AUDIO
    TITLE "0:"
    INDEX 01 00:18:05
  TRACK 25 AUDIO
    TITLE "4:cjc137_4635"
    INDEX 01 00:19:15
  TRACK 26 AUDIO
    TITLE "0:"
    INDEX 01 00:20:20
  TRACK 27 AUDIO
    TITLE "6:cjc137_4636"
    INDEX 01 00:20:24
  TRACK 28 AUDIO
    TITLE "0:"
    INDEX 01 00:21:60
  TRACK 29 AUDIO
    TITLE "5:cjc137_4637"
    INDEX 01 00:21:64
  TRACK 30 AUDIO
    TITLE "0:"
    INDEX 01 00:22:70
  TRACK 31 AUDIO
    TITLE "4:cjc137_4638"
    INDEX 01 00:24:02
  TRACK 32 AUDIO
    TITLE "0:"
    INDEX 01 00:25:09
  TRACK 33 AUDIO
    TITLE "6:cjc137_4639"
    INDEX 01 00:25:15
  TRACK 34 AUDIO
    TITLE "0:"
    INDEX 01 00:26:38
  TRACK 35 AUDIO
    TITLE "5:cjc137_4640"
    INDEX 01 00:26:42
  TRACK 36 AUDIO
    TITLE "0:"
    INDEX 01 00:27:49
  TRACK 37 AUDIO
    TITLE "4:cjc137_4641"
    INDEX 01 00:28:57
  TRACK 38 AUDIO
    TITLE "0:"
    INDEX 01 00:29:70
  TRACK 39 AUDIO
    TITLE "6:cjc137_4642"
    INDEX 01 00:30:03
  TRACK 40 AUDIO
    TITLE "0:"
    INDEX 01 00:31:16
  TRACK 41 AUDIO
    TITLE "5:cjc137_4643"
    INDEX 01 00:31:22
  TRACK 42 AUDIO
    TITLE "0:"
    INDEX 01 00:32:35
  TRACK 43 AUDIO
    TITLE "4:cjc137_4644"
    INDEX 01 00:33:42
  TRACK 44 AUDIO
    TITLE "0:"
    INDEX 01 00:34:63
  TRACK 45 AUDIO
    TITLE "6:cjc137_4645"
    INDEX 01 00:34:71
  TRACK 46 AUDIO
    TITLE "0:"
    INDEX 01 00:36:25
  TRACK 47 AUDIO
    TITLE "5:cjc137_4646"
    INDEX 01 00:36:36
  TRACK 48 AUDIO
    TITLE "0:"
    INDEX 01 00:37:54
  TRACK 49 AUDIO
    TITLE "4:cjc137_4647"
    INDEX 01 00:38:63
  TRACK 50 AUDIO
    TITLE "0:"
    INDEX 01 00:40:07
  TRACK 51 AUDIO
    TITLE "6:cjc137_4648"
    INDEX 01 00:40:13
  TRACK 52 AUDIO
    TITLE "0:"
    INDEX 01 00:41:30
  TRACK 53 AUDIO
    TITLE "5:cjc137_4649"
    INDEX 01 00:41:34
  TRACK 54 AUDIO
    TITLE "0:"
    INDEX 01 00:42:53
  TRACK 55 AUDIO
    TITLE "4:cjc137_4650"
    INDEX 01 00:43:62
  TRACK 56 AUDIO
    TITLE "0:"
    INDEX 01 00:45:02
  TRACK 57 AUDIO
    TITLE "6:cjc137_4651"
    INDEX 01 00:45:06
  TRACK 58 AUDIO
    TITLE "0:"
    INDEX 01 00:46:31
  TRACK 59 AUDIO
    TITLE "5:cjc137_4652"
    INDEX 01 00:46:39
  TRACK 60 AUDIO
    TITLE "0:"
    INDEX 01 00:47:52
  TRACK 61 AUDIO
    TITLE "4:cjc137_4653"
    INDEX 01 00:48:59
  TRACK 62 AUDIO
    TITLE "0:"
    INDEX 01 00:49:70
  TRACK 63 AUDIO
    TITLE "6:cjc137_4654"
    INDEX 01 00:49:74
  TRACK 64 AUDIO
    TITLE "0:"
    INDEX 01 00:51:07
  TRACK 65 AUDIO
    TITLE "5:cjc137_4655"
    INDEX 01 00:51:18
  TRACK 66 AUDIO
    TITLE "0:"
    INDEX 01 00:52:26
  TRACK 67 AUDIO
    TITLE "4:cjc137_4656"
    INDEX 01 00:53:35
  TRACK 68 AUDIO
    TITLE "0:"
    INDEX 01 00:54:48
  TRACK 69 AUDIO
    TITLE "6:cjc137_4657"
    INDEX 01 00:54:54
  TRACK 70 AUDIO
    TITLE "0:"
    INDEX 01 00:55:55
  TRACK 71 AUDIO
    TITLE "5:cjc137_4658"
    INDEX 01 00:55:59
  TRACK 72 AUDIO
    TITLE "0:"
    INDEX 01 00:56:74
  TRACK 73 AUDIO
    TITLE "4:cjc137_4659"
    INDEX 01 00:58:05
  TRACK 74 AUDIO
    TITLE "0:"
    INDEX 01 00:59:16
  TRACK 75 AUDIO
    TITLE "6:cjc137_4660"
    INDEX 01 00:59:22
  TRACK 76 AUDIO
    TITLE "0:"
    INDEX 01 01:00:45
  TRACK 77 AUDIO
    TITLE "5:cjc137_4661"
    INDEX 01 01:00:53
  TRACK 78 AUDIO
    TITLE "0:"
    INDEX 01 01:01:62
  TRACK 79 AUDIO
    TITLE "4:cjc137_4662"
    INDEX 01 01:02:71
  TRACK 80 AUDIO
    TITLE "0:"
    INDEX 01 01:04:17
  TRACK 81 AUDIO
    TITLE "6:cjc137_4663"
    INDEX 01 01:04:19
  TRACK 82 AUDIO
    TITLE "0:"
    INDEX 01 01:05:28
  TRACK 83 AUDIO
    TITLE "5:cjc137_4664"
    INDEX 01 01:05:34
  TRACK 84 AUDIO
    TITLE "0:"
    INDEX 01 01:06:55
